<?xml version="1.0" standalone="no"?>
<!DOCTYPE svg PUBLIC "-//W3C//DTD SVG 20010904//EN"
 "http://www.w3.org/TR/2001/REC-SVG-20010904/DTD/svg10.dtd">
<svg version="1.0" xmlns="http://www.w3.org/2000/svg"
 width="512.000000pt" height="512.000000pt" viewBox="0 0 512.000000 512.000000"
 preserveAspectRatio="xMidYMid meet">
<metadata>
Created by potrace 1.14, written by Peter Selinger 2001-2017
</metadata>
<g transform="translate(0.000000,512.000000) scale(0.100000,-0.100000)"
fill="#000000" stroke="none">
<path d="M2541 4965 c-1 -6 -36 -12 -78 -13 -129 -6 -138 -7 -150 -15 -8 -5
-13 -4 -13 3 0 6 -5 8 -12 4 -6 -4 -23 -8 -37 -10 -14 -1 -26 -3 -26 -4 0 -1
-16 -3 -35 -5 -57 -6 -114 -16 -130 -22 -8 -4 -24 -8 -35 -10 -39 -6 -50 -9
-62 -16 -7 -5 -17 -6 -22 -2 -5 3 -17 -2 -26 -12 -14 -14 -18 -14 -26 -2 -7
11 -9 11 -9 1 0 -7 -4 -11 -9 -8 -4 3 -16 -1 -27 -8 -10 -8 -23 -12 -29 -9 -7
2 -18 -3 -25 -12 -11 -13 -15 -13 -21 -3 -7 10 -9 10 -9 1 0 -7 -6 -13 -14
-13 -7 0 -27 -7 -42 -15 -16 -8 -39 -15 -52 -15 -13 0 -20 -4 -17 -10 3 -5 -2
-10 -12 -10 -10 0 -38 -11 -61 -25 -24 -14 -48 -23 -52 -20 -4 3 -11 -2 -14
-11 -3 -8 -10 -12 -16 -9 -5 3 -10 1 -10 -6 0 -7 -3 -9 -6 -6 -4 4 -20 -3 -35
-14 -16 -11 -29 -18 -29 -14 0 3 -10 -3 -22 -14 -11 -11 -25 -18 -30 -15 -4 3
-8 0 -8 -7 0 -7 -3 -10 -6 -6 -3 3 -17 -4 -31 -16 -13 -12 -29 -22 -33 -22 -5
0 -20 -9 -32 -20 -13 -10 -24 -18 -26 -16 -2 1 -14 -9 -27 -23 -16 -17 -25
-21 -28 -13 -3 7 -6 4 -6 -6 -1 -11 -7 -17 -19 -15 -9 2 -16 -3 -14 -10 1 -7
-9 -17 -23 -22 -13 -5 -30 -18 -37 -30 -7 -11 -16 -20 -20 -20 -16 0 -258
-235 -258 -250 0 -6 -5 -8 -10 -5 -6 3 -10 1 -10 -5 0 -17 -26 -40 -35 -32 -5
4 -5 2 -1 -5 3 -6 -2 -16 -11 -22 -10 -6 -14 -11 -9 -11 6 0 1 -9 -10 -20 -23
-23 -33 -35 -64 -80 -13 -19 -30 -39 -37 -43 -7 -5 -11 -12 -9 -16 3 -4 -4
-17 -14 -29 -11 -12 -20 -24 -20 -27 0 -4 -13 -25 -29 -48 -15 -23 -31 -52
-35 -65 -4 -13 -12 -19 -18 -16 -7 5 -9 1 -5 -9 4 -10 0 -20 -11 -26 -9 -6
-14 -11 -10 -11 3 0 -9 -29 -27 -65 -19 -36 -31 -65 -28 -65 3 0 -2 -9 -12
-20 -10 -11 -15 -20 -10 -20 4 0 2 -6 -4 -13 -6 -8 -8 -17 -4 -20 3 -4 1 -7
-6 -7 -8 0 -11 -7 -7 -15 3 -8 -2 -19 -12 -24 -9 -6 -14 -11 -9 -11 4 0 0 -17
-8 -37 -9 -20 -13 -43 -10 -50 2 -8 1 -12 -3 -9 -8 5 -52 -126 -55 -164 -1
-11 -4 -20 -7 -20 -5 0 -10 -27 -13 -67 0 -7 -5 -13 -11 -13 -6 0 -4 -5 4 -10
8 -5 10 -10 5 -10 -10 0 -15 -19 -18 -67 0 -13 -4 -23 -7 -23 -3 0 -6 -8 -7
-17 0 -10 -3 -36 -7 -58 -13 -83 -19 -153 -20 -250 0 -55 -5 -103 -11 -107 -6
-5 -6 -8 1 -8 7 0 12 -22 13 -52 3 -74 9 -153 11 -153 0 0 3 -27 6 -60 2 -33
9 -64 14 -69 6 -6 6 -14 -1 -23 -7 -8 -8 -13 -1 -13 5 0 12 -21 15 -47 3 -27
8 -59 12 -73 4 -14 7 -31 7 -37 1 -7 6 -13 12 -13 6 0 4 -5 -4 -10 -10 -6 -11
-10 -2 -10 7 0 12 -13 12 -30 0 -16 4 -30 10 -30 5 0 9 -3 8 -7 -5 -13 25
-113 33 -113 4 0 6 -8 4 -18 -1 -9 3 -28 10 -42 7 -14 23 -50 35 -80 31 -77
123 -264 134 -272 5 -3 11 -14 12 -24 2 -9 6 -20 11 -23 5 -3 24 -31 43 -61
19 -30 39 -58 45 -62 5 -4 6 -8 2 -8 -8 0 2 -14 41 -55 13 -14 20 -25 18 -25
-6 0 24 -38 56 -72 10 -10 18 -21 18 -24 0 -3 13 -18 30 -34 16 -15 26 -30 23
-34 -3 -3 1 -6 10 -6 10 0 17 -4 17 -10 0 -17 203 -210 221 -210 6 0 7 -5 4
-10 -3 -6 -1 -10 4 -10 10 0 36 -19 66 -47 8 -7 17 -13 22 -13 5 0 16 -8 25
-18 27 -28 48 -43 48 -35 0 4 12 -5 26 -20 14 -15 29 -25 35 -22 5 4 12 0 14
-8 3 -7 21 -20 40 -27 19 -8 35 -17 35 -22 0 -4 6 -8 14 -8 7 0 19 -7 26 -15
7 -8 16 -12 21 -9 5 3 9 0 9 -5 0 -6 7 -11 15 -11 8 0 15 -4 15 -10 0 -5 4 -9
8 -7 10 3 86 -35 90 -46 2 -4 7 -5 12 -2 11 6 62 -20 53 -28 -3 -4 4 -5 16 -2
11 2 21 -1 21 -7 0 -6 3 -8 7 -5 3 4 11 3 17 -2 13 -10 79 -32 87 -28 3 1 13
-4 21 -11 9 -7 27 -15 39 -18 39 -8 54 -12 57 -14 1 -2 5 -3 10 -5 4 -1 14 -5
23 -9 9 -4 33 -8 52 -9 19 -1 33 -5 30 -9 -4 -7 37 -13 60 -9 4 0 7 -2 7 -7 0
-7 38 -13 93 -15 15 -1 27 -5 27 -10 0 -5 7 -7 15 -4 8 4 17 1 21 -5 4 -7 9
-6 15 3 6 10 9 10 9 2 0 -7 7 -10 15 -7 8 4 15 1 15 -6 0 -9 4 -9 17 1 9 8 14
9 10 3 -7 -12 28 -15 180 -18 51 0 93 -5 93 -11 0 -5 5 -4 12 3 16 16 31 15
22 0 -5 -10 -4 -10 6 -1 7 6 19 9 26 6 8 -3 14 0 14 7 0 9 3 10 13 1 8 -6 16
-9 19 -6 3 3 41 7 84 9 43 3 79 5 79 6 0 2 18 5 100 15 33 4 63 12 67 19 5 7
8 6 8 -4 0 -10 3 -11 8 -4 4 6 14 11 22 11 8 1 31 4 50 8 19 4 43 8 53 9 9 0
17 4 17 8 0 4 11 8 24 8 14 0 27 4 30 9 4 5 17 8 31 6 14 -1 25 2 25 8 0 5 9
7 20 4 11 -3 18 -2 16 2 -5 7 71 33 88 30 5 0 13 6 18 15 5 8 15 13 22 10 8
-3 17 0 21 5 3 6 11 9 16 6 5 -4 9 -1 9 5 0 6 4 9 9 5 5 -3 12 -1 16 5 3 5 15
10 25 10 10 0 25 7 33 15 8 8 17 11 21 8 3 -4 6 -1 6 6 0 7 6 11 12 9 7 -3 19
1 26 9 8 7 18 11 23 8 5 -4 9 -2 9 4 0 6 11 13 25 17 14 3 25 10 25 16 0 5 5
6 10 3 6 -3 10 -1 10 4 0 6 6 11 14 11 7 0 19 7 26 15 7 8 20 15 30 15 9 0 25
9 35 20 10 11 24 20 32 20 7 0 13 4 13 8 0 5 15 17 34 27 19 11 32 23 29 28
-3 6 -1 7 5 3 6 -3 20 4 31 16 12 12 21 18 21 13 0 -5 7 1 16 13 8 12 19 22
25 22 5 0 17 8 28 17 10 10 47 43 81 73 66 59 200 190 193 190 -2 0 14 18 36
40 22 22 38 40 35 40 -2 0 4 8 14 19 25 27 63 79 65 88 1 4 14 20 29 35 14 14
24 29 21 32 -4 3 -1 6 6 6 7 0 10 4 7 9 -3 5 1 12 10 15 8 3 12 10 9 16 -3 5
-1 10 4 10 6 0 11 5 11 11 0 6 7 17 15 26 8 8 13 19 10 24 -4 5 -2 9 4 9 6 0
21 22 34 50 13 27 28 46 32 42 5 -4 5 1 2 10 -3 9 -3 18 1 20 7 3 72 132 72
143 0 3 11 28 25 55 14 28 23 50 20 50 -3 0 1 13 10 30 9 16 13 30 9 30 -4 0
-1 7 6 15 6 8 9 19 5 25 -3 5 -1 10 6 10 6 0 9 8 6 20 -3 11 -1 18 4 14 5 -3
10 2 10 10 2 17 5 33 9 41 1 3 3 8 4 13 1 4 6 21 10 37 5 17 8 38 7 49 -2 10
2 16 7 12 5 -3 8 6 6 19 -1 14 1 27 6 30 5 3 7 16 5 30 -1 14 1 25 4 25 4 0 8
10 9 23 6 76 10 94 21 116 10 17 10 21 1 16 -9 -6 -9 -3 -1 12 7 14 7 24 -2
33 -9 10 -9 11 0 6 7 -4 12 1 12 11 2 95 9 201 14 210 4 7 3 15 -3 18 -8 5 -8
11 0 20 8 10 7 16 -7 24 -10 6 -13 11 -7 11 10 0 10 63 0 113 -2 9 1 17 7 17
7 0 5 5 -3 10 -8 5 -11 10 -7 10 4 0 3 8 -2 18 -7 13 -6 23 1 30 7 7 8 12 2
12 -6 0 -11 12 -12 28 -3 69 -5 92 -11 92 -3 0 -7 12 -7 28 -4 66 -7 92 -14
92 -3 0 -7 10 -7 23 -2 30 -7 49 -17 65 -4 7 -5 16 -2 19 3 4 -1 17 -9 29 -10
16 -11 25 -4 30 7 4 8 9 1 13 -5 3 -17 29 -25 56 -22 69 -46 136 -57 160 -18
37 -33 80 -32 88 1 4 -2 7 -8 7 -5 0 -10 9 -10 20 0 11 -4 20 -10 20 -5 0 -10
7 -10 15 0 15 -34 82 -51 100 -5 5 -9 17 -9 27 0 10 -7 21 -15 24 -8 4 -13 10
-10 14 3 4 -2 13 -10 20 -8 7 -12 16 -9 21 3 5 1 9 -5 9 -6 0 -20 18 -31 40
-11 22 -25 40 -30 40 -6 0 -10 6 -10 13 0 7 -9 23 -20 35 -11 12 -20 26 -20
31 0 5 -10 18 -23 28 -13 10 -24 22 -24 27 -1 9 -41 59 -102 126 -22 25 -41
48 -41 52 0 5 -7 8 -16 8 -8 0 -12 5 -9 10 3 6 -1 10 -9 10 -9 0 -16 6 -16 13
0 6 -14 23 -31 36 -16 13 -45 39 -63 57 -18 18 -36 30 -40 27 -3 -3 -6 1 -6
10 0 10 -5 17 -10 17 -6 0 -24 14 -40 30 -17 17 -30 25 -31 18 0 -7 -5 -3 -11
10 -6 12 -17 22 -25 22 -7 0 -13 5 -13 10 0 6 -7 10 -16 10 -8 0 -12 5 -9 10
3 6 -3 10 -14 10 -11 0 -25 8 -30 18 -6 9 -11 14 -11 10 0 -7 -25 11 -55 40
-8 6 -19 12 -25 12 -12 0 -71 39 -82 55 -4 6 -8 6 -8 1 0 -5 -6 -4 -12 1 -26
21 -109 63 -124 63 -8 0 -17 7 -20 15 -4 8 -10 13 -14 10 -5 -3 -23 3 -41 14
-18 11 -36 18 -41 15 -4 -3 -8 0 -8 5 0 6 -3 10 -7 9 -5 -1 -21 3 -38 8 -16 6
-33 11 -36 10 -4 -1 -17 8 -30 19 -13 12 -19 14 -14 5 8 -13 7 -13 -8 -1 -9 7
-17 10 -17 6 0 -4 -11 0 -25 9 -14 9 -25 14 -25 11 0 -2 -12 0 -27 6 -26 10
-58 17 -90 21 -7 1 -13 6 -13 11 0 6 -3 7 -7 4 -3 -4 -13 -1 -21 6 -13 10 -14
9 -8 -1 7 -12 4 -12 -13 -2 -12 6 -35 12 -52 12 -16 1 -29 4 -29 9 0 4 -9 5
-20 2 -13 -3 -20 0 -20 8 0 11 -2 11 -10 -1 -7 -11 -10 -11 -10 -2 0 7 -5 10
-10 7 -6 -4 -16 -3 -23 2 -7 5 -29 8 -49 8 -21 -1 -38 2 -38 5 0 3 -9 6 -20 7
-11 1 -18 -2 -15 -7 3 -6 -1 -7 -9 -4 -9 3 -13 11 -9 18 4 6 -1 5 -10 -3 -14
-11 -17 -11 -17 0 0 10 -2 11 -8 2 -5 -7 -13 -9 -21 -3 -8 4 -21 6 -29 3 -8
-3 -18 0 -23 8 -7 11 -9 11 -9 1 0 -15 -31 -12 -42 3 -5 6 -8 5 -8 -4 0 -10
-3 -11 -14 -2 -10 8 -16 9 -21 1 -3 -5 -11 -10 -16 -10 -6 0 -7 6 -3 13 6 9 4
9 -8 -1 -13 -10 -17 -10 -21 0 -3 7 -6 8 -6 3z"/>
</g>
</svg>
