<?xml version="1.0" standalone="no"?>
<!DOCTYPE svg PUBLIC "-//W3C//DTD SVG 20010904//EN"
 "http://www.w3.org/TR/2001/REC-SVG-20010904/DTD/svg10.dtd">
<svg version="1.0" xmlns="http://www.w3.org/2000/svg"
 width="512.000000pt" height="512.000000pt" viewBox="0 0 512.000000 512.000000"
 preserveAspectRatio="xMidYMid meet">
<metadata>
Created by potrace 1.14, written by Peter Selinger 2001-2017
</metadata>
<g transform="translate(0.000000,512.000000) scale(0.100000,-0.100000)"
fill="#000000" stroke="none">
<path d="M2310 4935 c-614 -78 -1150 -357 -1539 -800 -300 -341 -477 -708
-566 -1170 -37 -191 -47 -347 -35 -528 34 -514 189 -938 488 -1340 89 -121
324 -359 437 -444 297 -223 643 -384 970 -452 55 -11 138 -28 185 -37 102 -21
407 -23 569 -5 442 49 859 217 1226 494 96 73 330 304 407 402 221 283 394
644 461 965 56 266 60 293 60 475 1 305 -35 538 -124 810 -253 770 -898 1372
-1681 1571 -254 64 -619 89 -858 59z m444 -1290 c120 -21 278 -81 382 -146
108 -67 255 -205 323 -304 200 -289 252 -637 145 -976 -51 -163 -136 -301
-264 -430 -292 -297 -718 -400 -1122 -273 -346 109 -624 403 -723 764 -33 118
-44 315 -25 441 33 232 141 446 306 612 159 161 346 261 579 310 92 20 291 21
399 2z"/>
<path d="M2454 3191 c-113 -35 -196 -112 -230 -213 -20 -62 -15 -157 12 -213
19 -40 73 -101 113 -126 l24 -15 -44 -26 c-60 -35 -113 -91 -141 -147 -20 -40
-23 -61 -23 -156 0 -100 3 -116 29 -172 68 -148 218 -221 426 -210 192 10 310
88 371 246 28 72 30 193 5 268 -22 65 -84 137 -148 169 l-50 26 23 15 c45 30
91 78 111 117 41 81 41 203 -2 287 -26 51 -108 120 -166 142 -74 28 -232 32
-310 8z m213 -117 c106 -35 160 -134 134 -241 -26 -101 -97 -154 -210 -156
-109 -1 -185 44 -217 130 -20 51 -14 129 13 175 52 89 172 128 280 92z m-7
-544 c112 -31 190 -128 190 -236 0 -73 -35 -152 -84 -189 -72 -55 -195 -71
-291 -38 -61 20 -126 84 -143 139 -17 60 -15 142 7 190 48 106 198 168 321
134z"/>
</g>
</svg>
